<svg width="30" height="30" viewBox="0 0 30 30" fill="none" xmlns="http://www.w3.org/2000/svg">
<circle cx="15" cy="15" r="15" fill="#DD4949"/>
<path d="M15 8C13.5418 8.00172 12.1439 8.58174 11.1128 9.61281C10.0817 10.6439 9.50173 12.0418 9.50001 13.5C9.49826 14.6916 9.8875 15.8509 10.608 16.8C10.608 16.8 10.758 16.9975 10.7825 17.026L15 22L19.2195 17.0235C19.2415 16.997 19.392 16.8 19.392 16.8L19.3925 16.7985C20.1127 15.8498 20.5017 14.6911 20.5 13.5C20.4983 12.0418 19.9183 10.6439 18.8872 9.61281C17.8561 8.58174 16.4582 8.00172 15 8ZM15 15.5C14.6044 15.5 14.2178 15.3827 13.8889 15.1629C13.56 14.9432 13.3036 14.6308 13.1522 14.2654C13.0009 13.8999 12.9613 13.4978 13.0384 13.1098C13.1156 12.7219 13.3061 12.3655 13.5858 12.0858C13.8655 11.8061 14.2219 11.6156 14.6098 11.5384C14.9978 11.4613 15.3999 11.5009 15.7654 11.6522C16.1308 11.8036 16.4432 12.06 16.6629 12.3889C16.8827 12.7178 17 13.1044 17 13.5C16.9993 14.0302 16.7884 14.5386 16.4135 14.9135C16.0386 15.2884 15.5302 15.4993 15 15.5Z" fill="white"/>
</svg>
