<svg width="46" height="46" viewBox="0 0 46 46" fill="none" xmlns="http://www.w3.org/2000/svg">
<path d="M3.78739 34.006L3.73144 34.2087L0.71247 45.1459L12.0158 42.2052L12.2064 42.1556L12.3796 42.2493C15.6516 44.0195 19.3364 44.9532 23.0864 44.9546C23.0865 44.9546 23.0866 44.9546 23.0866 44.9546H23.0963C35.4466 44.9546 45.4947 34.982 45.5 22.7356C45.5021 16.7989 43.1752 11.2181 38.9454 7.01733C34.715 2.81708 29.0918 0.502495 23.0963 0.5L3.78739 34.006ZM3.78739 34.006L3.68166 33.8242M3.78739 34.006L3.68166 33.8242M3.68166 33.8242C1.72194 30.4554 0.691036 26.6335 0.692266 22.7177M3.68166 33.8242L0.692266 22.7177M0.692266 22.7177C0.697185 10.4713 10.7438 0.50011 23.0961 0.5L0.692266 22.7177ZM6.88186 33.563L5.01719 40.3172L4.78664 41.1522L5.62504 40.9341L12.6294 39.1119L13.146 39.4159C13.146 39.4159 13.146 39.4159 13.1461 39.4159C16.1455 41.1818 19.5837 42.1157 23.0885 42.1175H23.0888H23.0963C33.8611 42.1175 42.6281 33.4257 42.6329 22.7346V22.7345C42.6342 17.5546 40.6029 12.6826 36.9144 9.01993L36.9144 9.01991C33.2259 5.35785 28.3203 3.33909 23.1037 3.3369H23.1035C12.3306 3.3369 3.56356 12.0275 3.55932 22.7188C3.55784 26.3812 4.59053 29.9488 6.54722 33.0359L6.54742 33.0362L6.88186 33.563Z" fill="url(#paint0_linear_508_120)" stroke="#60D669"/>
<defs>
<linearGradient id="paint0_linear_508_120" x1="2300" y1="4584.79" x2="2300" y2="0" gradientUnits="userSpaceOnUse">
<stop stop-color="#F9F9F9"/>
<stop offset="1" stop-color="white"/>
</linearGradient>
</defs>
</svg>
