<svg width="30" height="30" viewBox="0 0 30 30" fill="none" xmlns="http://www.w3.org/2000/svg">
<circle cx="15" cy="15" r="15" fill="#DD4949"/>
<path d="M18.341 16.9815L17.9663 17.3545C17.9663 17.3545 17.0744 18.2407 14.6409 15.8211C12.2073 13.4016 13.0992 12.5154 13.0992 12.5154L13.3347 12.2799C13.917 11.7018 13.9722 10.7728 13.464 10.0942L12.4264 8.70822C11.7972 7.86822 10.5825 7.75704 9.8619 8.47352L8.56895 9.75823C8.21235 10.114 7.97353 10.5735 8.00235 11.0841C8.07647 12.3911 8.66777 15.2018 11.9652 18.4811C15.4628 21.9581 18.7446 22.0964 20.0861 21.9713C20.511 21.9317 20.88 21.716 21.1773 21.4195L22.3467 20.2567C23.1373 19.4718 22.9149 18.1254 21.9036 17.5761L20.3307 16.7204C19.6669 16.3597 18.8599 16.4659 18.341 16.9815Z" fill="white"/>
</svg>
